<svg width="12" height="23" viewBox="0 0 12 23" fill="none" xmlns="http://www.w3.org/2000/svg">
<path d="M7.1539 0.265396C5.58361 0.510395 4.3481 1.43021 3.69448 2.84002C3.22419 3.863 3.12853 4.48624 3.12853 6.60526V8.10534H1.77745C1.02817 8.10534 0.378533 8.12253 0.326721 8.14402C0.270924 8.16981 0.187229 8.22998 0.143388 8.28156C0.0596924 8.37612 0.0596924 8.40621 0.0596924 10.3576C0.0596924 12.1714 0.0676634 12.3477 0.131432 12.4293C0.266939 12.6142 0.31875 12.6185 1.74955 12.6185H3.12853V17.2605V21.9026L3.24411 22.0401L3.35969 22.182L5.21694 22.1949C6.85498 22.2035 7.09013 22.1992 7.19774 22.139C7.44484 22.0015 7.43288 22.2164 7.43288 17.1961V12.6185H9.02708C10.1749 12.6185 10.6452 12.6056 10.7209 12.5669C10.9401 12.4594 10.9401 12.4422 10.9401 10.3447V8.40621L10.8245 8.26867L10.709 8.12683L9.06694 8.11393L7.4289 8.10104L7.44085 6.71271L7.45281 5.32869L7.57237 5.0751C7.7039 4.80001 7.9231 4.61519 8.21803 4.52922C8.30172 4.50343 8.89158 4.47764 9.52527 4.46905C10.163 4.45615 10.7249 4.43896 10.7727 4.42607C10.8245 4.41317 10.9122 4.353 10.964 4.29282L11.0597 4.18107V2.32424C11.0597 0.501799 11.0597 0.467413 10.976 0.372852C10.9322 0.321274 10.8485 0.261099 10.7927 0.23531C10.6332 0.170835 7.60027 0.196625 7.1539 0.265396Z" fill="#00730C"/>
</svg>
