<svg width="23" height="23" viewBox="0 0 23 23" fill="none" xmlns="http://www.w3.org/2000/svg">
<path d="M22.7978 22.5308V22.5299H22.8033V14.4614C22.8033 10.5142 21.9535 7.47363 17.339 7.47363C15.1207 7.47363 13.632 8.69097 13.0243 9.84505H12.9601V7.84213H8.58484V22.5299H13.1407V15.2571C13.1407 13.3421 13.5037 11.4905 15.8751 11.4905C18.2117 11.4905 18.2465 13.6758 18.2465 15.3799V22.5308H22.7978Z" fill="white"/>
<path d="M1.02368 7.84277H5.58502V22.5305H1.02368V7.84277Z" fill="white"/>
<path d="M3.3015 0.165039C1.84308 0.165039 0.659668 1.34846 0.659668 2.80687C0.659668 4.26529 1.84308 5.47346 3.3015 5.47346C4.75992 5.47346 5.94334 4.26529 5.94334 2.80687C5.94242 1.34846 4.759 0.165039 3.3015 0.165039V0.165039Z" fill="white"/>
</svg>
