<svg width="25" height="20" viewBox="0 0 25 20" fill="none" xmlns="http://www.w3.org/2000/svg">
<path d="M24.4244 2.32315C23.5319 2.71465 22.5809 2.97415 21.5894 3.10015C22.6094 2.49115 23.3879 1.53415 23.7539 0.380648C22.8029 0.947648 21.7529 1.34815 20.6339 1.57165C19.7309 0.610149 18.4439 0.0146484 17.0399 0.0146484C14.3159 0.0146484 12.1229 2.22565 12.1229 4.93615C12.1229 5.32615 12.1559 5.70115 12.2369 6.05815C8.14644 5.85865 4.52694 3.89815 2.09544 0.911648C1.67094 1.64815 1.42194 2.49115 1.42194 3.39865C1.42194 5.10265 2.29944 6.61315 3.60744 7.48765C2.81694 7.47265 2.04144 7.24315 1.38444 6.88165C1.38444 6.89665 1.38444 6.91615 1.38444 6.93565C1.38444 9.32665 3.08994 11.3126 5.32644 11.7701C4.92594 11.8796 4.48944 11.9321 4.03644 11.9321C3.72144 11.9321 3.40344 11.9141 3.10494 11.8481C3.74244 13.7966 5.55144 15.2291 7.70244 15.2756C6.02844 16.5851 3.90294 17.3741 1.60194 17.3741C1.19844 17.3741 0.811438 17.3561 0.424438 17.3066C2.60394 18.7121 5.18694 19.5146 7.97244 19.5146C17.0264 19.5146 21.9764 12.0146 21.9764 5.51365C21.9764 5.29615 21.9689 5.08615 21.9584 4.87765C22.9349 4.18465 23.7554 3.31915 24.4244 2.32315Z" fill="white"/>
</svg>
