<svg width="25" height="20" viewBox="0 0 25 20" fill="none" xmlns="http://www.w3.org/2000/svg">
<path d="M12.7227 18.9958C12.7103 19.5344 12.2101 19.9251 11.71 19.8346C12.3965 19.9594 13.9942 20.1341 14.8929 19.8346C14.3721 19.9127 13.8967 19.518 13.8843 18.9916C13.8843 19.0204 13.5329 16.2284 14.9384 13.6461C16.1413 11.4379 16.811 11.6682 18.2206 11.1336C20.0271 10.4469 21.8831 9.73966 23.1563 8.19766C25.2356 5.67701 24.6858 2.22293 24.5081 1.28951C22.2758 4.47631 20.0147 3.57167 17.737 5.0232C15.4221 6.49941 14.3886 8.8268 14.6119 11.3187C16.9061 7.33003 19.8038 9.08585 22.7967 5.09722C22.0691 6.29792 21.0729 7.34237 19.8328 8.08664C18.0511 9.17221 17.1913 8.85558 14.492 12.7538C13.9959 13.4692 13.595 14.2505 13.3056 15.0688C12.9708 14.123 12.4871 13.2143 11.8753 12.4166C10.6476 10.8252 10.1061 9.9247 9.03129 9.15576C7.55968 8.09486 5.05462 7.68777 3.03321 4.34061C6.40635 8.84324 9.56868 6.78725 12.1399 11.2652C12.3962 8.42793 11.1891 5.87438 8.66339 4.26248C6.1294 2.64647 3.61607 3.65391 1.13169 0.105255C0.933268 1.14559 0.321474 4.99031 2.63637 7.79469C4.04946 9.50769 6.10307 10.2895 8.10564 11.0519L8.126 11.0596C9.08916 11.4256 11.5653 11.5366 12.5326 15.9241C12.7971 17.1413 12.7517 17.8444 12.7227 18.9958Z" fill="#00730C"/>
</svg>
